<svg width="120" height="120" viewBox="0 0 120 120" fill="none" xmlns="http://www.w3.org/2000/svg">
    <circle cx="60" cy="60" r="58.5" stroke="black" stroke-width="3"/>
    <path d="M71 16.3541C67.4797 15.4697 63.7947 15 60 15C35.1472 15 15 35.1472 15 60C15 68.4037 17.3036 76.2694 21.3138 83" stroke="#FF5D2E" stroke-width="3" stroke-linecap="round"/>
    <path d="M58.1985 69.382C56.4985 71.4673 54.4358 72.51 52.0105 72.51C49.5852 72.51 47.5112 71.4673 45.7885 69.382C44.0885 67.274 43.2385 64.3613 43.2385 60.644C43.2385 56.9493 44.0885 54.0593 45.7885 51.974C47.5112 49.866 49.5852 48.812 52.0105 48.812C54.4358 48.812 56.4985 49.866 58.1985 51.974C59.9212 54.0593 60.7825 56.9607 60.7825 60.678C60.7825 64.3727 59.9212 67.274 58.1985 69.382ZM55.0025 54.626C54.1185 53.2887 53.1212 52.62 52.0105 52.62C50.8998 52.62 49.8912 53.2887 48.9845 54.626C48.1005 55.9407 47.6585 57.9467 47.6585 60.644C47.6585 63.3413 48.1005 65.3587 48.9845 66.696C49.8685 68.0333 50.8772 68.702 52.0105 68.702C53.1438 68.702 54.1525 68.0333 55.0365 66.696C55.9205 65.3587 56.3625 63.3413 56.3625 60.644C56.3625 57.9467 55.9092 55.9407 55.0025 54.626ZM67.0733 72V53.13H63.8093V49.322H71.4933V72H67.0733Z" fill="#FF5D2E"/>
</svg>
