<svg width="24" height="22" viewBox="0 0 24 22" fill="none" xmlns="http://www.w3.org/2000/svg">
    <path d="M6.54545 0C4.73281 0 3.08914 0.594784 1.90057 1.73035C0.711997 2.86591 0 4.53445 0 6.54634C0 9.76122 2.17334 12.4663 4.66193 14.8315C7.15053 17.1968 10.0188 19.2772 11.5909 21.0881C11.6421 21.1461 11.7051 21.1926 11.7756 21.2244C11.8461 21.2563 11.9226 21.2727 12 21.2727C12.0774 21.2727 12.1539 21.2563 12.2244 21.2244C12.2949 21.1926 12.3579 21.1461 12.4091 21.0881C14.4483 18.7392 18.6606 15.9518 21.4176 12.6153C21.4732 12.5621 21.517 12.4977 21.5459 12.4263C21.5749 12.355 21.5884 12.2783 21.5856 12.2013C21.5828 12.1244 21.5638 12.0489 21.5297 11.9798C21.4957 11.9107 21.4474 11.8497 21.388 11.8006C21.3287 11.7516 21.2596 11.7156 21.1854 11.6952C21.1111 11.6747 21.0334 11.6702 20.9573 11.6819C20.8812 11.6937 20.8085 11.7214 20.7438 11.7633C20.6792 11.8052 20.6242 11.8602 20.5824 11.9249C18.1237 14.9004 14.3104 17.5051 12.0085 19.9629C10.2633 18.1013 7.66281 16.1781 5.41193 14.0388C2.9977 11.7442 1.09091 9.26085 1.09091 6.54634C1.09091 4.78654 1.68562 3.44499 2.65057 2.52308C3.61551 1.60116 4.97217 1.09106 6.54545 1.09106C8.70359 1.09106 10.7277 2.29811 11.4801 4.79042C11.4955 4.86466 11.5261 4.9349 11.5701 4.99663C11.6141 5.05837 11.6705 5.11026 11.7356 5.14899C11.8008 5.18773 11.8733 5.21244 11.9485 5.22159C12.0238 5.23073 12.1001 5.2241 12.1727 5.20209C12.2452 5.18009 12.3123 5.14322 12.3698 5.09381C12.4273 5.04441 12.4739 4.98356 12.5066 4.91515C12.5392 4.84674 12.5573 4.77226 12.5596 4.69649C12.5619 4.62071 12.5484 4.54529 12.5199 4.47503C11.6359 1.54722 9.12743 0 6.54545 0ZM17.4545 0C15.9597 0 14.4389 0.471718 13.2784 1.5002C13.2135 1.54336 13.1586 1.59994 13.1174 1.66611C13.0762 1.73228 13.0497 1.80652 13.0396 1.88381C13.0295 1.9611 13.0361 2.03965 13.0589 2.11419C13.0817 2.18872 13.1202 2.25749 13.1718 2.31588C13.2235 2.37428 13.287 2.42095 13.3582 2.45271C13.4293 2.48448 13.5065 2.50063 13.5844 2.50007C13.6624 2.49951 13.7393 2.48224 13.81 2.44945C13.8807 2.41666 13.9435 2.36911 13.9943 2.30998C14.9219 1.48793 16.1909 1.09106 17.4545 1.09106C19.0278 1.09106 20.3845 1.60116 21.3494 2.52308C22.3144 3.44499 22.9091 4.78654 22.9091 6.54634C22.9091 7.8719 22.4621 9.12455 21.7159 10.348C21.6782 10.4096 21.653 10.478 21.6417 10.5493C21.6304 10.6206 21.6334 10.6935 21.6503 10.7637C21.6673 10.8339 21.6979 10.9001 21.7405 10.9584C21.783 11.0167 21.8367 11.0661 21.8983 11.1037C21.96 11.1412 22.0285 11.1663 22.0998 11.1773C22.1712 11.1884 22.244 11.1853 22.3142 11.1681C22.3843 11.151 22.4504 11.1201 22.5086 11.0774C22.5668 11.0347 22.616 10.9809 22.6534 10.9191C23.4734 9.57471 24 8.11624 24 6.54634C24 4.53445 23.288 2.86592 22.0994 1.73035C20.9109 0.594781 19.2672 0 17.4545 0ZM6.54545 2.72764C5.49236 2.72764 4.52153 3.10806 3.8267 3.82722C3.13188 4.54638 2.72727 5.58838 2.72727 6.8191C2.72625 6.89139 2.7396 6.96317 2.76656 7.03025C2.79351 7.09733 2.83353 7.15838 2.88428 7.20986C2.93503 7.26134 2.9955 7.30223 3.06219 7.33013C3.12888 7.35803 3.20044 7.37239 3.27273 7.37239C3.34501 7.37239 3.41658 7.35803 3.48326 7.33013C3.54995 7.30223 3.61043 7.26134 3.66118 7.20986C3.71193 7.15838 3.75194 7.09733 3.7789 7.03025C3.80585 6.96317 3.8192 6.89139 3.81818 6.8191C3.81818 5.82109 4.13097 5.08247 4.6108 4.58584C5.09062 4.08922 5.75168 3.8187 6.54545 3.8187C6.61774 3.81973 6.68951 3.80638 6.75659 3.77943C6.82367 3.75248 6.88473 3.71245 6.93621 3.66169C6.98769 3.61093 7.02857 3.55045 7.05647 3.48375C7.08438 3.41705 7.09875 3.34548 7.09875 3.27318C7.09875 3.20087 7.08438 3.12929 7.05647 3.06259C7.02857 2.99589 6.98769 2.9354 6.93621 2.88464C6.88473 2.83388 6.82367 2.79386 6.75659 2.76691C6.68951 2.73995 6.61774 2.72661 6.54545 2.72764Z"
          fill="white"/>
</svg>
