<svg width="19" height="25" viewBox="0 0 19 25" fill="none" xmlns="http://www.w3.org/2000/svg">
    <path d="M15.5065 2.74422C13.9564 1.34917 11.8122 0.599976 9.48707 0.599976C7.13616 0.599976 5.01775 1.34917 3.4677 2.74422C1.5818 4.39761 0.600098 6.90353 0.600098 9.9778C0.600098 16.5655 8.04036 23.9541 8.09202 24.0058C8.47954 24.3933 8.97039 24.6 9.48707 24.6C10.0296 24.6 10.5721 24.3675 10.908 24.0058C11.218 23.6958 18.3999 16.488 18.3999 9.9778C18.3999 6.90353 17.3923 4.39761 15.5065 2.74422ZM9.48707 14.473C6.82615 14.473 4.65607 12.277 4.65607 9.59029C4.65607 6.90353 6.82615 4.68178 9.48707 4.68178C12.148 4.68178 14.3181 6.90353 14.3181 9.59029C14.3181 12.277 12.148 14.473 9.48707 14.473Z" fill="black"/>
</svg>
