<svg width="30" height="30" viewBox="0 0 30 30" fill="none" xmlns="http://www.w3.org/2000/svg">
    <path d="M15.0001 3.88428C8.87375 3.88428 3.88428 8.84217 3.88428 15.0001C3.88428 19.579 6.66322 23.4948 10.6106 25.2001L10.7685 17.3369C9.82112 17.2422 9.0948 16.4527 9.0948 15.4738V9.78954C9.0948 9.47375 9.34743 9.22112 9.66322 9.22112C9.97901 9.22112 10.2316 9.47375 10.2316 9.78954V14.4632C10.2316 14.5895 10.358 14.7159 10.4843 14.7159H11.0843C11.2106 14.7159 11.3369 14.5895 11.3369 14.4632V9.82112C11.3369 9.50533 11.5895 9.2527 11.9053 9.2527C12.2211 9.2527 12.4738 9.50533 12.4738 9.82112V14.4948C12.4738 14.6211 12.6001 14.7474 12.7264 14.7474H13.3264C13.4527 14.7474 13.579 14.6211 13.579 14.4948V9.82112C13.579 9.50533 13.8316 9.2527 14.1474 9.2527C14.4632 9.2527 14.7159 9.50533 14.7159 9.82112V15.5053C14.7159 16.4527 13.9895 17.2738 13.0422 17.3685L13.2001 25.958C13.7369 26.0527 14.3685 26.1159 15.0001 26.1159C15.7264 26.1159 16.4211 26.0527 17.1159 25.9264L17.2738 9.6948C17.2738 9.37901 17.558 9.15796 17.8422 9.18954C18.979 9.37901 19.958 10.1685 20.4001 11.2422C21.0001 12.7264 21.379 14.3369 21.4738 15.9474L21.6316 18.5369C21.6632 19.0422 21.2527 19.4843 20.7474 19.4843H19.5474L19.6422 25.1053C23.4632 23.3369 26.1159 19.4843 26.1159 15.0001C26.1159 8.87375 21.1264 3.88428 15.0001 3.88428Z"
          fill="black"/>
    <path d="M15 0C6.72632 0 0 6.72632 0 15C0 23.2737 6.72632 30 15 30C23.2737 30 30 23.2737 30 15C30 6.72632 23.2737 0 15 0ZM15 27.8842C7.89474 27.8842 2.11579 22.1053 2.11579 15C2.11579 7.89474 7.89474 2.11579 15 2.11579C22.1053 2.11579 27.8842 7.89474 27.8842 15C27.8842 22.1053 22.1053 27.8842 15 27.8842Z"
          fill="black"/>
</svg>
