<svg width="732" height="208" viewBox="0 0 732 208" fill="none" xmlns="http://www.w3.org/2000/svg">
    <path fill-rule="evenodd" clip-rule="evenodd"
          d="M31 1C14.4315 1 1 14.4315 1 31V141C1 157.569 14.4315 171 31 171H68V207L144 171H701C717.569 171 731 157.569 731 141V31C731 14.4315 717.569 1 701 1H31Z"
          fill="white"/>
    <path d="M68 171H68.5V170.5H68V171ZM68 207H67.5V207.79L68.214 207.452L68 207ZM144 171V170.5H143.888L143.786 170.548L144 171ZM1.5 31C1.5 14.7076 14.7076 1.5 31 1.5V0.5C14.1553 0.5 0.5 14.1553 0.5 31H1.5ZM1.5 141V31H0.5V141H1.5ZM31 170.5C14.7076 170.5 1.5 157.292 1.5 141H0.5C0.5 157.845 14.1553 171.5 31 171.5V170.5ZM68 170.5H31V171.5H68V170.5ZM68.5 207V171H67.5V207H68.5ZM143.786 170.548L67.786 206.548L68.214 207.452L144.214 171.452L143.786 170.548ZM701 170.5H144V171.5H701V170.5ZM730.5 141C730.5 157.292 717.292 170.5 701 170.5V171.5C717.845 171.5 731.5 157.845 731.5 141H730.5ZM730.5 31V141H731.5V31H730.5ZM701 1.5C717.292 1.5 730.5 14.7076 730.5 31H731.5C731.5 14.1553 717.845 0.5 701 0.5V1.5ZM31 1.5H701V0.5H31V1.5Z"
          fill="#BABABA"/>
</svg>
