<svg width="732" height="208" viewBox="0 0 732 208" fill="none" xmlns="http://www.w3.org/2000/svg">
    <path fill-rule="evenodd" clip-rule="evenodd"
          d="M701 1C717.569 1 731 14.4315 731 31V141C731 157.569 717.569 171 701 171H664V207L588 171H31C14.4315 171 1 157.569 1 141V31C1 14.4315 14.4315 1 31 1H701Z"
          fill="white"/>
    <path d="M664 171H663.5V170.5H664V171ZM664 207H664.5V207.79L663.786 207.452L664 207ZM588 171V170.5H588.112L588.214 170.548L588 171ZM730.5 31C730.5 14.7076 717.292 1.5 701 1.5V0.5C717.845 0.5 731.5 14.1553 731.5 31H730.5ZM730.5 141V31H731.5V141H730.5ZM701 170.5C717.292 170.5 730.5 157.292 730.5 141H731.5C731.5 157.845 717.845 171.5 701 171.5V170.5ZM664 170.5H701V171.5H664V170.5ZM663.5 207V171H664.5V207H663.5ZM588.214 170.548L664.214 206.548L663.786 207.452L587.786 171.452L588.214 170.548ZM31 170.5H588V171.5H31V170.5ZM1.5 141C1.5 157.292 14.7076 170.5 31 170.5V171.5C14.1553 171.5 0.5 157.845 0.5 141H1.5ZM1.5 31V141H0.5V31H1.5ZM31 1.5C14.7076 1.5 1.5 14.7076 1.5 31H0.5C0.5 14.1553 14.1553 0.5 31 0.5V1.5ZM701 1.5H31V0.5H701V1.5Z"
          fill="#BABABA"/>
</svg>
