<svg width="120" height="120" viewBox="0 0 120 120" fill="none" xmlns="http://www.w3.org/2000/svg">
    <circle cx="60" cy="60" r="58.5" stroke="black" stroke-width="3"/>
    <path d="M94 30.5201C85.7492 21.0125 73.5768 15 60 15C35.1472 15 15 35.1472 15 60C15 84.8528 35.1472 105 60 105C69.0361 105 77.4502 102.337 84.5 97.7522" stroke="#FF5D2E" stroke-width="3" stroke-linecap="round"/>
    <path d="M57.0198 69.382C55.3198 71.4673 53.2571 72.51 50.8318 72.51C48.4064 72.51 46.3324 71.4673 44.6098 69.382C42.9098 67.274 42.0598 64.3613 42.0598 60.644C42.0598 56.9493 42.9098 54.0593 44.6098 51.974C46.3324 49.866 48.4064 48.812 50.8318 48.812C53.2571 48.812 55.3198 49.866 57.0198 51.974C58.7424 54.0593 59.6038 56.9607 59.6038 60.678C59.6038 64.3727 58.7424 67.274 57.0198 69.382ZM53.8238 54.626C52.9398 53.2887 51.9424 52.62 50.8318 52.62C49.7211 52.62 48.7124 53.2887 47.8058 54.626C46.9218 55.9407 46.4798 57.9467 46.4798 60.644C46.4798 63.3413 46.9218 65.3587 47.8058 66.696C48.6898 68.0333 49.6984 68.702 50.8318 68.702C51.9651 68.702 52.9738 68.0333 53.8578 66.696C54.7418 65.3587 55.1838 63.3413 55.1838 60.644C55.1838 57.9467 54.7304 55.9407 53.8238 54.626ZM61.112 72L67.776 64.418C69.952 61.8793 71.244 60.304 71.652 59.692C72.536 58.3773 72.978 57.1647 72.978 56.054C72.978 55.034 72.6493 54.2067 71.992 53.572C71.3573 52.9373 70.564 52.62 69.612 52.62C68.524 52.62 67.6627 52.994 67.028 53.742C66.3933 54.4673 66.0533 55.3513 66.008 56.394H61.452C61.5427 54.1047 62.3247 52.2687 63.798 50.886C65.2713 49.5033 67.1413 48.812 69.408 48.812C71.9013 48.812 73.8507 49.526 75.256 50.954C76.684 52.382 77.398 54.0707 77.398 56.02C77.398 57.108 77.1487 58.196 76.65 59.284C76.1513 60.372 75.6753 61.1993 75.222 61.766C74.7687 62.31 74.1227 63.0353 73.284 63.942L69.374 68.192H77.568V72H61.112Z" fill="#FF5D2E"/>
</svg>
