<svg width="163" height="120" viewBox="0 0 163 120" fill="none" xmlns="http://www.w3.org/2000/svg">
    <circle cx="83" cy="60" r="58.5" stroke="black" stroke-width="3"/>
    <circle cx="83" cy="60" r="43.5" stroke="#FF5D2E" stroke-width="3"/>
    <path d="M80.0198 69.382C78.3198 71.4673 76.2571 72.51 73.8318 72.51C71.4064 72.51 69.3324 71.4673 67.6098 69.382C65.9098 67.274 65.0598 64.3613 65.0598 60.644C65.0598 56.9493 65.9098 54.0593 67.6098 51.974C69.3324 49.866 71.4064 48.812 73.8318 48.812C76.2571 48.812 78.3198 49.866 80.0198 51.974C81.7424 54.0593 82.6038 56.9607 82.6038 60.678C82.6038 64.3727 81.7424 67.274 80.0198 69.382ZM76.8238 54.626C75.9398 53.2887 74.9424 52.62 73.8318 52.62C72.7211 52.62 71.7124 53.2887 70.8058 54.626C69.9218 55.9407 69.4798 57.9467 69.4798 60.644C69.4798 63.3413 69.9218 65.3587 70.8058 66.696C71.6898 68.0333 72.6984 68.702 73.8318 68.702C74.9651 68.702 75.9738 68.0333 76.8578 66.696C77.7418 65.3587 78.1838 63.3413 78.1838 60.644C78.1838 57.9467 77.7304 55.9407 76.8238 54.626ZM89.382 55.238H85.234C85.438 53.2207 86.22 51.6453 87.58 50.512C88.94 49.3787 90.6173 48.812 92.612 48.812C94.788 48.812 96.5107 49.3787 97.78 50.512C99.072 51.6453 99.718 53.164 99.718 55.068C99.718 57.2667 98.8453 58.8533 97.1 59.828C99.412 60.78 100.568 62.582 100.568 65.234C100.568 67.5007 99.7973 69.28 98.256 70.572C96.7373 71.864 94.8107 72.51 92.476 72.51C90.2547 72.51 88.3847 71.8753 86.866 70.606C85.3473 69.314 84.4973 67.6027 84.316 65.472H88.736C88.872 66.4467 89.2687 67.2287 89.926 67.818C90.5833 68.4073 91.4447 68.702 92.51 68.702C93.6887 68.702 94.584 68.3507 95.196 67.648C95.8307 66.9227 96.148 66.0727 96.148 65.098C96.148 64.146 95.8307 63.3187 95.196 62.616C94.584 61.9133 93.6433 61.562 92.374 61.562H91.796V58.366H92.408C93.428 58.366 94.1987 58.0713 94.72 57.482C95.2413 56.87 95.502 56.1333 95.502 55.272C95.502 54.3653 95.23 53.64 94.686 53.096C94.142 52.552 93.4167 52.28 92.51 52.28C91.6713 52.28 90.946 52.5407 90.334 53.062C89.7447 53.5833 89.4273 54.3087 89.382 55.238Z" fill="#FF5D2E"/>
    <path d="M7.29991 26.7612L7.30009 26.7518C7.3132 26.0554 7.32246 25.554 7.30925 25.1827C7.29548 24.7955 7.25764 24.6293 7.22413 24.5581C7.22129 24.5521 7.21903 24.548 7.21742 24.5453C7.21076 24.5423 7.19625 24.5367 7.16971 24.5306C7.04845 24.503 6.86252 24.5 6.5 24.5C6.14984 24.5 5.97587 24.5032 5.86328 24.5298C5.84168 24.5349 5.82939 24.5395 5.82337 24.5421C5.8214 24.5453 5.8185 24.5504 5.81487 24.5581C5.77935 24.6336 5.73988 24.8038 5.71963 25.191C5.70017 25.5631 5.7 26.0651 5.7 26.7612V39.1866C5.7 39.7339 5.45787 40.1668 5.09394 40.4506C4.74332 40.7241 4.2996 40.8463 3.8805 40.8463C3.46185 40.8463 3.01832 40.7242 2.67173 40.4466C2.31231 40.1587 2.08438 39.7225 2.1 39.1788V26.7659C2.08694 26.0725 2.07731 25.5712 2.05163 25.1993C2.02489 24.8122 1.98365 24.6378 1.94613 24.5581C1.94165 24.5486 1.93814 24.5425 1.9358 24.5389C1.93045 24.5366 1.92033 24.5329 1.90347 24.5288C1.7997 24.5034 1.63783 24.5 1.3 24.5C0.962174 24.5 0.800303 24.5034 0.696531 24.5288C0.67966 24.5329 0.669557 24.5366 0.664208 24.5389C0.661877 24.5425 0.658356 24.5486 0.65387 24.5581C0.616345 24.6378 0.575109 24.8122 0.548375 25.1993C0.522693 25.5712 0.513059 26.0725 0.5 26.7659V36.4244C0.525916 43.3367 1.50752 46.3982 2.4341 48.2088C2.66793 48.6657 2.90182 49.0499 3.12595 49.4066C3.16691 49.4718 3.20796 49.5367 3.24886 49.6014C3.42801 49.8846 3.60428 50.1633 3.75789 50.4423C4.15062 51.1557 4.41375 51.9023 4.4 52.9958V95.2341C4.40541 95.5233 4.40697 95.7736 4.40833 95.9939C4.41036 96.3204 4.41198 96.5812 4.42514 96.8059C4.44773 97.1914 4.50194 97.2996 4.532 97.3358C4.5464 97.3532 4.6088 97.4206 4.95184 97.4602C5.28987 97.4992 5.77136 97.5 6.5 97.5C7.08427 97.5 7.49697 97.4991 7.8105 97.4606C8.12055 97.4225 8.2466 97.3559 8.31397 97.292C8.38142 97.2281 8.46498 97.0954 8.52236 96.7526C8.57982 96.4093 8.6 95.9286 8.6 95.2388V52.9925C8.6 51.897 8.87424 51.1509 9.27321 50.439C9.4247 50.1687 9.59746 49.898 9.77268 49.6234C9.81889 49.551 9.86527 49.4783 9.91147 49.4053C10.1368 49.0491 10.3713 48.6652 10.6049 48.2088C11.5308 46.3994 12.5 43.3388 12.5 36.4254V26.7612C12.5 26.0651 12.4998 25.5631 12.4804 25.191C12.4601 24.8038 12.4207 24.6336 12.3851 24.5581C12.3815 24.5504 12.3786 24.5453 12.3766 24.5421C12.3706 24.5395 12.3583 24.5349 12.3367 24.5298C12.2241 24.5032 12.0502 24.5 11.7 24.5C11.3375 24.5 11.1516 24.503 11.0303 24.5306C11.0038 24.5367 10.9893 24.5423 10.9826 24.5453C10.981 24.5479 10.9787 24.5521 10.9759 24.5581C10.9424 24.6293 10.9045 24.7955 10.8907 25.1827C10.8775 25.554 10.8868 26.0554 10.8999 26.7518H10.9V26.7612V39.1866V39.195L10.8997 39.2034C10.8817 39.7382 10.6457 40.164 10.2911 40.4471C9.94723 40.7216 9.51385 40.8463 9.1 40.8463C8.68615 40.8463 8.25277 40.7216 7.90894 40.4471C7.55426 40.164 7.31827 39.7382 7.30028 39.2034L7.3 39.195V39.1866L7.29991 26.7612Z" fill="black" stroke="black"/>
    <path d="M157.618 95.2409C157.618 95.9437 157.618 96.4256 157.66 96.7772C157.702 97.1293 157.774 97.2408 157.827 97.2905C157.887 97.3463 158.022 97.4192 158.41 97.4596C158.792 97.4993 159.312 97.5 160.059 97.5C160.806 97.5 161.326 97.4993 161.707 97.4596C162.095 97.4192 162.231 97.3463 162.29 97.2905C162.343 97.2408 162.416 97.1293 162.458 96.7772C162.499 96.4256 162.5 95.9437 162.5 95.2409V25.7663C162.5 24.312 161.94 23.6922 161.32 23.5423C160.624 23.3739 159.541 23.6984 158.34 24.815C155.974 27.0155 153.5 32.008 153.5 40.0585C153.5 52.3414 154.535 56.9514 155.509 58.9537C155.919 59.7979 156.313 60.173 156.669 60.5123C156.722 60.5623 156.774 60.6115 156.824 60.6613C157.032 60.8649 157.246 61.0991 157.397 61.4368C157.547 61.7728 157.618 62.1699 157.618 62.6833V95.2409Z" fill="black" stroke="white"/>
</svg>
