<svg id="Слой_1" data-name="Слой 1" xmlns="http://www.w3.org/2000/svg" viewBox="0 0 360.96 344.02">
    <defs>
        <style>.cls-1{fill:#FF5D2E;}</style>
    </defs>
    <title>123</title>
    <path class="cls-1"
          d="M318.44,75.07Q297.26,108,276.18,140.89c-2.59,4-5.68,7.75-7.78,12.11C256,172.63,243,191.9,230.63,211.53,209,245.7,187,279.6,165.1,313.61a61,61,0,0,1-6.73,9.32c-14.25,14.95-38.6,14.84-52.27-.79-21.78-24.89-43.25-50.07-64.71-75.25-8.36-9.81-17.5-19-24.76-29.71C3.17,197.32,15,168.58,38.49,163.6c15.07-3.2,27.18,1.76,37,13.22C92.71,196.94,110,217,127.11,237.23c2.21,2.61,3.15,3,5.52.08C161.34,202.46,190.24,167.77,219,133c7.6-9.2,15.57-18.08,22.61-27.73C250.75,94.36,260,83.54,269,72.59c6.6-8,13.63-15.64,19.6-24.14,5.39-6.33,10.84-12.6,16.15-19,6.18-7.44,11.79-15.4,20.63-20.18,10.19-5.52,19.22-4.22,21.62,6.85a24.51,24.51,0,0,1,0,8.24,17.66,17.66,0,0,1-1.67,5.34c-1,2.5-1.93,5.09-3.18,7.5-5.47,10.55-12.61,20.07-18.79,30.19C322.47,68.88,319.14,74,318.44,75.07Z"/>
</svg>