<svg width="20" height="20" viewBox="0 0 20 20" fill="none" xmlns="http://www.w3.org/2000/svg">
    <circle cx="10" cy="10" r="9.5" stroke="#BABABA"/>
    <path fill-rule="evenodd" clip-rule="evenodd"
          d="M10.0005 5C8.64254 5 8.47212 5.00594 7.93878 5.03021C7.40648 5.05458 7.04315 5.13886 6.72523 5.2625C6.39637 5.39021 6.11741 5.56105 5.83949 5.83907C5.56136 6.11699 5.39052 6.39595 5.2624 6.72471C5.13844 7.04273 5.05406 7.40617 5.0301 7.93826C5.00625 8.4716 5 8.64212 5 10.0001C5 11.358 5.00604 11.5279 5.03021 12.0612C5.05469 12.5935 5.13896 12.9569 5.2625 13.2748C5.39032 13.6036 5.56115 13.8826 5.83918 14.1605C6.11699 14.4386 6.39595 14.6099 6.7246 14.7376C7.04273 14.8612 7.40617 14.9455 7.93836 14.9699C8.4717 14.9942 8.64202 15.0001 9.99984 15.0001C11.3579 15.0001 11.5278 14.9942 12.0611 14.9699C12.5934 14.9455 12.9572 14.8612 13.2753 14.7376C13.604 14.6099 13.8826 14.4386 14.1604 14.1605C14.4385 13.8826 14.6094 13.6036 14.7375 13.2749C14.8604 12.9569 14.9448 12.5934 14.9698 12.0613C14.9937 11.528 15 11.358 15 10.0001C15 8.64212 14.9937 8.4717 14.9698 7.93836C14.9448 7.40607 14.8604 7.04273 14.7375 6.72481C14.6094 6.39595 14.4385 6.11699 14.1604 5.83907C13.8823 5.56094 13.6042 5.39011 13.275 5.2625C12.9562 5.13886 12.5927 5.05458 12.0604 5.03021C11.527 5.00594 11.3573 5 9.99891 5H10.0005ZM9.83356 5.90104H9.83365L10.0003 5.90109C11.3353 5.90109 11.4935 5.90588 12.0207 5.92984C12.5082 5.95213 12.7728 6.03359 12.9491 6.10203C13.1824 6.19265 13.3488 6.30099 13.5237 6.47599C13.6987 6.65099 13.807 6.81766 13.8978 7.051C13.9663 7.22704 14.0478 7.49163 14.07 7.97913C14.094 8.50622 14.0992 8.66456 14.0992 9.99894C14.0992 11.3333 14.094 11.4917 14.07 12.0188C14.0477 12.5063 13.9663 12.7708 13.8978 12.9469C13.8072 13.1802 13.6987 13.3464 13.5237 13.5213C13.3487 13.6963 13.1825 13.8046 12.9491 13.8952C12.773 13.964 12.5082 14.0452 12.0207 14.0675C11.4936 14.0915 11.3353 14.0967 10.0003 14.0967C8.66518 14.0967 8.50694 14.0915 7.97986 14.0675C7.49235 14.045 7.22776 13.9636 7.05141 13.8951C6.81807 13.8045 6.6514 13.6962 6.4764 13.5212C6.3014 13.3462 6.19307 13.1799 6.10223 12.9465C6.03379 12.7704 5.95223 12.5058 5.93004 12.0183C5.90608 11.4913 5.90129 11.3329 5.90129 9.99769C5.90129 8.66247 5.90608 8.50497 5.93004 7.97788C5.95233 7.49038 6.03379 7.22579 6.10223 7.04954C6.19286 6.8162 6.3014 6.64953 6.4764 6.47453C6.6514 6.29953 6.81807 6.1912 7.05141 6.10036C7.22766 6.03161 7.49235 5.95036 7.97986 5.92796C8.44111 5.90713 8.61986 5.90088 9.55175 5.89984V5.90109C9.63882 5.90095 9.73248 5.901 9.83356 5.90104ZM12.0694 7.33109C12.0694 6.99973 12.3381 6.73129 12.6694 6.73129V6.73109C13.0006 6.73109 13.2694 6.99984 13.2694 7.33109C13.2694 7.66235 13.0006 7.9311 12.6694 7.9311C12.3381 7.9311 12.0694 7.66235 12.0694 7.33109ZM10.0003 7.43241C8.58235 7.43247 7.43271 8.58215 7.43271 10.0001C7.43271 11.4182 8.5824 12.5674 10.0004 12.5674C11.4185 12.5674 12.5678 11.4182 12.5678 10.0001C12.5678 8.58211 11.4184 7.43241 10.0003 7.43241ZM11.6674 10.0001C11.6674 9.07957 10.9211 8.33342 10.0007 8.33342C9.08015 8.33342 8.334 9.07957 8.334 10.0001C8.334 10.9205 9.08015 11.6668 10.0007 11.6668C10.9211 11.6668 11.6674 10.9205 11.6674 10.0001Z"
          fill="#BABABA"/>
</svg>
