<svg width="20" height="20" viewBox="0 0 20 20" fill="none" xmlns="http://www.w3.org/2000/svg">
    <circle cx="10" cy="10" r="9.5" stroke="#BABABA"/>
    <path fill-rule="evenodd" clip-rule="evenodd"
          d="M8.03256 6.93766C8.03256 7.45889 7.64022 7.87597 7.01024 7.87597H6.99869C6.39213 7.87597 6 7.45889 6 6.93766C6 6.4054 6.40407 6 7.02215 6C7.64022 6 8.02084 6.4054 8.03256 6.93766ZM7.91367 8.61702V14.0455H6.10694V8.61702H7.91367ZM14.4293 14.0453L14.4293 10.9328C14.4293 9.26538 13.538 8.48935 12.3491 8.48935C11.3898 8.48935 10.9604 9.01624 10.7206 9.38586V8.61696H8.91362C8.93744 9.12634 8.91362 14.0454 8.91362 14.0454H10.7206V11.0137C10.7206 10.8515 10.7323 10.6896 10.7801 10.5735C10.9106 10.2494 11.208 9.9138 11.7071 9.9138C12.3611 9.9138 12.6226 10.4116 12.6226 11.1411V14.0453H14.4293Z"
          fill="#BABABA"/>
</svg>
