<svg width="20" height="20" viewBox="0 0 20 20" fill="none" xmlns="http://www.w3.org/2000/svg">
    <circle cx="10" cy="10" r="9.5" stroke="#BABABA"/>
    <path d="M10.37 8.12813L10.3895 8.47415L10.0644 8.43178C8.88083 8.26936 7.84685 7.71855 6.96895 6.79347L6.53975 6.33446L6.4292 6.67342C6.19509 7.42902 6.34466 8.22699 6.83238 8.76368C7.0925 9.06027 7.03398 9.10264 6.58527 8.9261C6.4292 8.8696 6.29263 8.82723 6.27963 8.84842C6.23411 8.89785 6.39018 9.54046 6.51374 9.79468C6.68281 10.1478 7.02747 10.4938 7.40465 10.6986L7.72329 10.861L7.34612 10.8681C6.98195 10.8681 6.96895 10.8751 7.00796 11.0234C7.13802 11.4824 7.65176 11.9697 8.22402 12.1815L8.62721 12.3298L8.27605 12.5558C7.75581 12.8806 7.14453 13.0642 6.53325 13.0784C6.24061 13.0854 6 13.1137 6 13.1349C6 13.2055 6.79337 13.6009 7.25508 13.7563C8.64022 14.2153 10.2855 14.0176 11.521 13.2337C12.3989 12.6759 13.2769 11.5672 13.6865 10.4938C13.9076 9.92179 14.1287 8.87666 14.1287 8.37528C14.1287 8.05045 14.1483 8.00808 14.5124 7.61968C14.727 7.39371 14.9286 7.14655 14.9676 7.07593C15.0327 6.94176 15.0262 6.94176 14.6945 7.06181C14.1418 7.27366 14.0637 7.24541 14.3368 6.92764C14.5384 6.70166 14.779 6.29209 14.779 6.17204C14.779 6.15085 14.6815 6.18616 14.5709 6.24972C14.4539 6.32033 14.1938 6.42626 13.9987 6.48981L13.6475 6.60986L13.3289 6.37683C13.1533 6.24972 12.9062 6.10848 12.7761 6.06611C12.4445 5.96725 11.9372 5.98137 11.6381 6.09436C10.8252 6.41214 10.3115 7.23129 10.37 8.12813Z"
          fill="#BABABA"/>
</svg>
